# xmcd
# 
# Track frame offsets:
#     182
#     16152
#     29420
#     48140
#     61120
#     79245
#     97515
#     113387
#     124280
#     139695
#     158735
#     176215
# 
# Disc length: 2566
# 
# Revision: 12
# Processed by: cddbd v1.5.2PL0 Copyright (c) Steve Scherf et al.
# Submitted via: fre:ac v1.0.31
# 
DISCID=880a040c
DTITLE=The Robert Cray Band - Bad Influence
DYEAR=1983
DGENRE=Blues
TTITLE0=Phone Booth
TTITLE1=Bad Influence
TTITLE2=The Grinder
TTITLE3=Got To Make A Comeback
TTITLE4=So Many Women, So Little Time
TTITLE5=Where Do I Go From Here
TTITLE6=Waiting For The Tide To Turn
TTITLE7=March On
TTITLE8=Don't Touch Me
TTITLE9=No Big Deal
TTITLE10=Share What You've Got, Keep What You Need
TTITLE11=I Got Loaded
EXTD=YEAR: 1983
EXTT0=
EXTT1=
EXTT2=
EXTT3=
EXTT4=
EXTT5=
EXTT6=
EXTT7=
EXTT8=
EXTT9=
EXTT10=
EXTT11=
PLAYORDER=
